# xmcd
#
# Track frame offsets:
# 150
# 12869
# 31914
# 43116
# 47892
# 65509
# 84090
# 102712
# 114996
# 127546
# 143117
# 155083
# 166209
# 179351
# 187728
#
# Disc length: 2639 seconds
#
# Revision: 0
# Processed by: cddbd v1.4b42PL1 Copyright (c) Steve Scherf et al.
# Submitted via: Audion 2.5.0 (http://www.panic.com/audion/)
#
DISCID=ba0a4d0f
DTITLE=various arstis - Mix music 2001
DYEAR=1900
DGENRE=
TTITLE0=Télétubbies
TTITLE1=like a rose
TTITLE2=je mapelle Rémi
TTITLE3=Amazon party
TTITLE4=I dreamt I dwelt in
TTITLE5=Christina Aguilera
TTITLE6=every body dance now
TTITLE7=silent night
TTITLE8=petite marguerite
TTITLE9=Aaron party
TTITLE10=Lyre lyre meditation
TTITLE11=track 04
TTITLE12=siste are doing it
TTITLE13=Xena remix
TTITLE14=Crève mon sale
EXTD=
EXTT0=
EXTT1=
EXTT2=
EXTT3=
EXTT4=
EXTT5=
EXTT6=
EXTT7=
EXTT8=
EXTT9=
EXTT10=
EXTT11=
EXTT12=
EXTT13=
EXTT14=
PLAYORDER=
